<mxfile host="app.diagrams.net" modified="2024-09-11T06:09:17.089Z" agent="Mozilla/5.0 (Windows NT 10.0; Win64; x64) AppleWebKit/537.36 (KHTML, like Gecko) Chrome/127.0.0.0 Safari/537.36" version="24.5.2" etag="63msMy9x64qAl9cdNia9" type="github">
  <diagram name="Page-1" id="NGJzMoL1YaxwXaJGOSmv">
    <mxGraphModel>
      <root>
        <mxCell id="0" />
        <mxCell id="1" parent="0" />
      </root>
    </mxGraphModel>
  </diagram>
</mxfile>
